<mxfile host="Electron" agent="Mozilla/5.0 (Windows NT 10.0; Win64; x64) AppleWebKit/537.36 (KHTML, like Gecko) draw.io/27.0.2 Chrome/134.0.6998.205 Electron/35.3.0 Safari/537.36" version="27.0.2">
  <diagram id="0iN4cRk-O3f9heEpMg_g" name="Page-1">
    <mxGraphModel dx="2320" dy="592" grid="0" gridSize="10" guides="1" tooltips="1" connect="1" arrows="1" fold="1" page="1" pageScale="1" pageWidth="1100" pageHeight="1700" math="0" shadow="0">
      <root>
        <mxCell id="0" />
        <mxCell id="1" parent="0" />
        <mxCell id="29aiM7jhphycKeGwUz8S-75" value="" style="rounded=0;whiteSpace=wrap;html=1;strokeColor=#000000;strokeWidth=1;fillColor=none;fontSize=12;align=center;" parent="1" vertex="1">
          <mxGeometry x="-1071" y="30" width="1060" height="880" as="geometry" />
        </mxCell>
        <mxCell id="29aiM7jhphycKeGwUz8S-73" value="" style="rounded=0;whiteSpace=wrap;html=1;dashed=1;strokeColor=#000000;fillColor=none;fontSize=10;align=center;perimeterSpacing=0;strokeWidth=1;" parent="1" vertex="1">
          <mxGeometry x="-1031" y="50" width="990" height="660" as="geometry" />
        </mxCell>
        <mxCell id="29aiM7jhphycKeGwUz8S-50" value="OPCODE [7:0]" style="text;html=1;align=left;verticalAlign=middle;resizable=0;points=[];autosize=1;fontSize=10;" parent="1" vertex="1">
          <mxGeometry x="-831" y="220" width="80" height="20" as="geometry" />
        </mxCell>
        <mxCell id="29aiM7jhphycKeGwUz8S-15" style="edgeStyle=orthogonalEdgeStyle;rounded=0;orthogonalLoop=1;jettySize=auto;html=1;exitX=1;exitY=0.75;exitDx=0;exitDy=0;" parent="1" source="29aiM7jhphycKeGwUz8S-2" target="29aiM7jhphycKeGwUz8S-3" edge="1">
          <mxGeometry relative="1" as="geometry">
            <Array as="points">
              <mxPoint x="-671" y="270" />
            </Array>
          </mxGeometry>
        </mxCell>
        <mxCell id="29aiM7jhphycKeGwUz8S-47" style="edgeStyle=orthogonalEdgeStyle;rounded=0;orthogonalLoop=1;jettySize=auto;html=1;exitX=0.75;exitY=1;exitDx=0;exitDy=0;entryX=1;entryY=0.5;entryDx=0;entryDy=0;fontSize=10;" parent="1" target="29aiM7jhphycKeGwUz8S-17" edge="1">
          <mxGeometry relative="1" as="geometry">
            <Array as="points">
              <mxPoint x="-682" y="370" />
              <mxPoint x="-341" y="370" />
            </Array>
            <mxPoint x="-682" y="300" as="sourcePoint" />
            <mxPoint x="-332" y="251.99999999999977" as="targetPoint" />
          </mxGeometry>
        </mxCell>
        <mxCell id="JZCBgXoklfMijY1Y_zp0-16" value="NUMUX" style="edgeLabel;html=1;align=center;verticalAlign=middle;resizable=0;points=[];" parent="29aiM7jhphycKeGwUz8S-47" vertex="1" connectable="0">
          <mxGeometry x="0.7502" relative="1" as="geometry">
            <mxPoint x="-2" y="-12" as="offset" />
          </mxGeometry>
        </mxCell>
        <mxCell id="29aiM7jhphycKeGwUz8S-48" style="edgeStyle=orthogonalEdgeStyle;rounded=0;orthogonalLoop=1;jettySize=auto;html=1;exitX=0.5;exitY=1;exitDx=0;exitDy=0;entryX=1;entryY=0.5;entryDx=0;entryDy=0;fontSize=10;" parent="1" target="29aiM7jhphycKeGwUz8S-31" edge="1">
          <mxGeometry relative="1" as="geometry">
            <Array as="points">
              <mxPoint x="-699" y="380" />
              <mxPoint x="-281" y="380" />
            </Array>
            <mxPoint x="-699" y="300" as="sourcePoint" />
            <mxPoint x="-269" y="232.24999999999977" as="targetPoint" />
          </mxGeometry>
        </mxCell>
        <mxCell id="JZCBgXoklfMijY1Y_zp0-15" value="ALUSRC" style="edgeLabel;html=1;align=center;verticalAlign=middle;resizable=0;points=[];" parent="29aiM7jhphycKeGwUz8S-48" vertex="1" connectable="0">
          <mxGeometry x="0.7422" y="-1" relative="1" as="geometry">
            <mxPoint y="-8" as="offset" />
          </mxGeometry>
        </mxCell>
        <mxCell id="29aiM7jhphycKeGwUz8S-49" style="edgeStyle=orthogonalEdgeStyle;rounded=0;orthogonalLoop=1;jettySize=auto;html=1;exitX=0.417;exitY=1;exitDx=0;exitDy=0;fontSize=10;entryX=0.381;entryY=0.874;entryDx=0;entryDy=0;entryPerimeter=0;strokeWidth=2;exitPerimeter=0;" parent="1" source="29aiM7jhphycKeGwUz8S-2" target="29aiM7jhphycKeGwUz8S-42" edge="1">
          <mxGeometry relative="1" as="geometry">
            <Array as="points">
              <mxPoint x="-718" y="390" />
              <mxPoint x="-200" y="390" />
            </Array>
            <mxPoint x="-716" y="310" as="sourcePoint" />
            <mxPoint x="-199.79999999999973" y="313.5799999999999" as="targetPoint" />
          </mxGeometry>
        </mxCell>
        <mxCell id="29aiM7jhphycKeGwUz8S-2" value="Control Unit" style="rounded=0;whiteSpace=wrap;html=1;" parent="1" vertex="1">
          <mxGeometry x="-751" y="180" width="80" height="120" as="geometry" />
        </mxCell>
        <mxCell id="29aiM7jhphycKeGwUz8S-19" style="edgeStyle=orthogonalEdgeStyle;rounded=0;orthogonalLoop=1;jettySize=auto;html=1;exitX=1;exitY=0.25;exitDx=0;exitDy=0;entryX=0.25;entryY=1;entryDx=0;entryDy=0;strokeWidth=2;" parent="1" source="29aiM7jhphycKeGwUz8S-3" target="29aiM7jhphycKeGwUz8S-17" edge="1">
          <mxGeometry relative="1" as="geometry" />
        </mxCell>
        <mxCell id="29aiM7jhphycKeGwUz8S-23" style="edgeStyle=orthogonalEdgeStyle;rounded=0;orthogonalLoop=1;jettySize=auto;html=1;exitX=1;exitY=0.25;exitDx=0;exitDy=0;entryX=0;entryY=0.5;entryDx=0;entryDy=0;strokeWidth=2;" parent="1" source="29aiM7jhphycKeGwUz8S-3" target="29aiM7jhphycKeGwUz8S-16" edge="1">
          <mxGeometry relative="1" as="geometry">
            <Array as="points">
              <mxPoint x="-441" y="200" />
              <mxPoint x="-441" y="240" />
            </Array>
          </mxGeometry>
        </mxCell>
        <mxCell id="29aiM7jhphycKeGwUz8S-46" style="edgeStyle=orthogonalEdgeStyle;rounded=0;orthogonalLoop=1;jettySize=auto;html=1;exitX=1;exitY=0.75;exitDx=0;exitDy=0;entryX=-0.016;entryY=0.735;entryDx=0;entryDy=0;entryPerimeter=0;fontSize=10;strokeWidth=2;" parent="1" source="29aiM7jhphycKeGwUz8S-3" target="29aiM7jhphycKeGwUz8S-42" edge="1">
          <mxGeometry relative="1" as="geometry" />
        </mxCell>
        <mxCell id="29aiM7jhphycKeGwUz8S-3" value="8x8 Register File" style="rounded=0;whiteSpace=wrap;html=1;" parent="1" vertex="1">
          <mxGeometry x="-531" y="160" width="80" height="160" as="geometry" />
        </mxCell>
        <mxCell id="29aiM7jhphycKeGwUz8S-8" style="edgeStyle=orthogonalEdgeStyle;rounded=0;orthogonalLoop=1;jettySize=auto;html=1;exitX=0;exitY=0.5;exitDx=0;exitDy=0;entryX=0;entryY=0.5;entryDx=0;entryDy=0;strokeWidth=2;" parent="1" source="29aiM7jhphycKeGwUz8S-4" target="29aiM7jhphycKeGwUz8S-2" edge="1">
          <mxGeometry relative="1" as="geometry">
            <Array as="points">
              <mxPoint x="-961" y="803" />
              <mxPoint x="-961" y="240" />
            </Array>
          </mxGeometry>
        </mxCell>
        <mxCell id="29aiM7jhphycKeGwUz8S-11" style="edgeStyle=orthogonalEdgeStyle;rounded=0;orthogonalLoop=1;jettySize=auto;html=1;exitX=0;exitY=0.5;exitDx=0;exitDy=0;entryX=0;entryY=0.125;entryDx=0;entryDy=0;entryPerimeter=0;strokeWidth=2;" parent="1" source="29aiM7jhphycKeGwUz8S-4" target="29aiM7jhphycKeGwUz8S-3" edge="1">
          <mxGeometry relative="1" as="geometry">
            <mxPoint x="-591" y="180" as="targetPoint" />
            <Array as="points">
              <mxPoint x="-961" y="803" />
              <mxPoint x="-961" y="120" />
              <mxPoint x="-631" y="120" />
              <mxPoint x="-631" y="180" />
            </Array>
          </mxGeometry>
        </mxCell>
        <mxCell id="29aiM7jhphycKeGwUz8S-12" style="edgeStyle=orthogonalEdgeStyle;rounded=0;orthogonalLoop=1;jettySize=auto;html=1;exitX=0;exitY=0.5;exitDx=0;exitDy=0;strokeWidth=2;" parent="1" source="29aiM7jhphycKeGwUz8S-4" target="29aiM7jhphycKeGwUz8S-3" edge="1">
          <mxGeometry relative="1" as="geometry">
            <mxPoint x="-591" y="210" as="targetPoint" />
            <Array as="points">
              <mxPoint x="-961" y="803" />
              <mxPoint x="-961" y="130" />
              <mxPoint x="-641" y="130" />
              <mxPoint x="-641" y="211" />
            </Array>
          </mxGeometry>
        </mxCell>
        <mxCell id="29aiM7jhphycKeGwUz8S-13" style="edgeStyle=orthogonalEdgeStyle;rounded=0;orthogonalLoop=1;jettySize=auto;html=1;exitX=0;exitY=0.5;exitDx=0;exitDy=0;entryX=0;entryY=0.5;entryDx=0;entryDy=0;strokeWidth=2;" parent="1" source="29aiM7jhphycKeGwUz8S-4" target="29aiM7jhphycKeGwUz8S-3" edge="1">
          <mxGeometry relative="1" as="geometry">
            <Array as="points">
              <mxPoint x="-961" y="803" />
              <mxPoint x="-961" y="140" />
              <mxPoint x="-651" y="140" />
              <mxPoint x="-651" y="240" />
            </Array>
          </mxGeometry>
        </mxCell>
        <mxCell id="29aiM7jhphycKeGwUz8S-33" style="edgeStyle=orthogonalEdgeStyle;rounded=0;orthogonalLoop=1;jettySize=auto;html=1;exitX=0;exitY=0.5;exitDx=0;exitDy=0;entryX=0.25;entryY=1;entryDx=0;entryDy=0;fontSize=10;strokeWidth=2;" parent="1" source="29aiM7jhphycKeGwUz8S-4" target="29aiM7jhphycKeGwUz8S-31" edge="1">
          <mxGeometry relative="1" as="geometry">
            <Array as="points">
              <mxPoint x="-961" y="803" />
              <mxPoint x="-961" y="110" />
              <mxPoint x="-311" y="110" />
              <mxPoint x="-311" y="180" />
            </Array>
          </mxGeometry>
        </mxCell>
        <mxCell id="29aiM7jhphycKeGwUz8S-4" value="Instruction Memory" style="rounded=0;whiteSpace=wrap;html=1;" parent="1" vertex="1">
          <mxGeometry x="-729" y="723" width="80" height="160" as="geometry" />
        </mxCell>
        <mxCell id="29aiM7jhphycKeGwUz8S-6" value="PC" style="rounded=0;whiteSpace=wrap;html=1;" parent="1" vertex="1">
          <mxGeometry x="-780" y="484" width="80" height="40" as="geometry" />
        </mxCell>
        <mxCell id="29aiM7jhphycKeGwUz8S-20" style="edgeStyle=orthogonalEdgeStyle;rounded=0;orthogonalLoop=1;jettySize=auto;html=1;exitX=1;exitY=0.5;exitDx=0;exitDy=0;entryX=0.75;entryY=1;entryDx=0;entryDy=0;strokeWidth=2;" parent="1" source="29aiM7jhphycKeGwUz8S-16" target="29aiM7jhphycKeGwUz8S-17" edge="1">
          <mxGeometry relative="1" as="geometry" />
        </mxCell>
        <mxCell id="29aiM7jhphycKeGwUz8S-16" value="2&#39;s Comp" style="rounded=0;whiteSpace=wrap;html=1;" parent="1" vertex="1">
          <mxGeometry x="-421" y="225" width="50" height="30" as="geometry" />
        </mxCell>
        <mxCell id="29aiM7jhphycKeGwUz8S-32" style="edgeStyle=orthogonalEdgeStyle;rounded=0;orthogonalLoop=1;jettySize=auto;html=1;exitX=0.5;exitY=0;exitDx=0;exitDy=0;entryX=0.75;entryY=1;entryDx=0;entryDy=0;fontSize=10;strokeWidth=2;" parent="1" source="29aiM7jhphycKeGwUz8S-17" target="29aiM7jhphycKeGwUz8S-31" edge="1">
          <mxGeometry relative="1" as="geometry" />
        </mxCell>
        <mxCell id="29aiM7jhphycKeGwUz8S-17" value="M&lt;br&gt;U&lt;br&gt;X" style="shape=trapezoid;perimeter=trapezoidPerimeter;whiteSpace=wrap;html=1;rotation=90;horizontal=0;" parent="1" vertex="1">
          <mxGeometry x="-381" y="206.25" width="80" height="27.5" as="geometry" />
        </mxCell>
        <mxCell id="29aiM7jhphycKeGwUz8S-24" value="READREG2 [2:0]" style="text;html=1;align=left;verticalAlign=middle;resizable=0;points=[];autosize=1;fontSize=10;" parent="1" vertex="1">
          <mxGeometry x="-624" y="160" width="90" height="20" as="geometry" />
        </mxCell>
        <mxCell id="29aiM7jhphycKeGwUz8S-25" value="READREG1 [2:0]" style="text;html=1;align=left;verticalAlign=middle;resizable=0;points=[];autosize=1;fontSize=10;" parent="1" vertex="1">
          <mxGeometry x="-624" y="190.25" width="90" height="20" as="geometry" />
        </mxCell>
        <mxCell id="29aiM7jhphycKeGwUz8S-26" value="WRITEREG [2:0]" style="text;html=1;align=left;verticalAlign=middle;resizable=0;points=[];autosize=1;fontSize=10;" parent="1" vertex="1">
          <mxGeometry x="-624" y="220" width="90" height="20" as="geometry" />
        </mxCell>
        <mxCell id="29aiM7jhphycKeGwUz8S-27" value="WRITEENABLE" style="text;html=1;align=left;verticalAlign=middle;resizable=0;points=[];autosize=1;fontSize=10;" parent="1" vertex="1">
          <mxGeometry x="-624" y="250" width="90" height="20" as="geometry" />
        </mxCell>
        <mxCell id="29aiM7jhphycKeGwUz8S-30" value="REGOUT2 [7:0]" style="text;html=1;strokeColor=none;fillColor=none;align=center;verticalAlign=middle;whiteSpace=wrap;rounded=0;fontSize=10;" parent="1" vertex="1">
          <mxGeometry x="-451" y="180" width="80" height="20" as="geometry" />
        </mxCell>
        <mxCell id="29aiM7jhphycKeGwUz8S-43" style="edgeStyle=orthogonalEdgeStyle;rounded=0;orthogonalLoop=1;jettySize=auto;html=1;exitX=0.5;exitY=0;exitDx=0;exitDy=0;fontSize=10;strokeWidth=2;" parent="1" source="29aiM7jhphycKeGwUz8S-31" edge="1">
          <mxGeometry relative="1" as="geometry">
            <mxPoint x="-232" y="200" as="targetPoint" />
          </mxGeometry>
        </mxCell>
        <mxCell id="29aiM7jhphycKeGwUz8S-31" value="M&lt;br&gt;U&lt;br&gt;X" style="shape=trapezoid;perimeter=trapezoidPerimeter;whiteSpace=wrap;html=1;rotation=90;horizontal=0;" parent="1" vertex="1">
          <mxGeometry x="-321" y="186.5" width="80" height="27.5" as="geometry" />
        </mxCell>
        <mxCell id="29aiM7jhphycKeGwUz8S-34" value="IMMEDIATE [7:0]" style="text;html=1;align=center;verticalAlign=middle;resizable=0;points=[];autosize=1;fontSize=10;" parent="1" vertex="1">
          <mxGeometry x="-591" y="90" width="90" height="20" as="geometry" />
        </mxCell>
        <mxCell id="29aiM7jhphycKeGwUz8S-44" style="edgeStyle=orthogonalEdgeStyle;rounded=0;orthogonalLoop=1;jettySize=auto;html=1;exitX=0.702;exitY=0.507;exitDx=0;exitDy=0;entryX=-0.005;entryY=0.864;entryDx=0;entryDy=0;entryPerimeter=0;fontSize=10;exitPerimeter=0;strokeWidth=2;" parent="1" source="29aiM7jhphycKeGwUz8S-42" target="29aiM7jhphycKeGwUz8S-3" edge="1">
          <mxGeometry relative="1" as="geometry">
            <Array as="points">
              <mxPoint x="-175" y="245" />
              <mxPoint x="-131" y="245" />
              <mxPoint x="-131" y="360" />
              <mxPoint x="-551" y="360" />
              <mxPoint x="-551" y="298" />
            </Array>
          </mxGeometry>
        </mxCell>
        <mxCell id="29aiM7jhphycKeGwUz8S-42" value="&amp;nbsp; &amp;nbsp; &amp;nbsp; &amp;nbsp;ALU" style="shape=stencil(vZXdjoMgEIWfhtsGYY3XG3f3PailKykFA/Tv7TuKNmJL2zRiYgwwx+8wZAYRLW3NGo4IrhH9QYRkGMMb5qfJnNmGV84vHpkRbC25j1hn9I6fxMb1DKFqboRro/QX4W/QtM9tQMtKKwU0oZUNJBPhSA4mTChg4rM36bd1CWYN+O6546bfvF9F5O9jl1W+iE+2TDahy5Bb6myS+YT5ZAvVQCqfbDYXWoIg1mMj1ZpVu3+jD2rzkhaRjkRbbfhr2E0tpPQXx/uH1rD2hrnTPVQP3+z1kUcb4NlhPqVKoUbUIsSSPA23mIs7aZvhhp+ZmxczYafcNNv9oh9jK6ltvIwjxQziSD3fSd/tkw4aaUMYdGH/u+8iVw==);whiteSpace=wrap;html=1;strokeColor=#000000;fillColor=#ffffff;fontSize=10;align=left;" parent="1" vertex="1">
          <mxGeometry x="-231" y="155" width="80" height="170" as="geometry" />
        </mxCell>
        <mxCell id="29aiM7jhphycKeGwUz8S-51" value="INSTRUCTION&lt;br&gt;[31:0]" style="text;html=1;align=left;verticalAlign=middle;resizable=0;points=[];autosize=1;fontSize=10;" parent="1" vertex="1">
          <mxGeometry x="-871" y="770" width="80" height="30" as="geometry" />
        </mxCell>
        <mxCell id="29aiM7jhphycKeGwUz8S-53" value="PC&lt;br&gt;[31:0]" style="text;html=1;align=left;verticalAlign=middle;resizable=0;points=[];autosize=1;fontSize=10;" parent="1" vertex="1">
          <mxGeometry x="-611" y="770" width="40" height="30" as="geometry" />
        </mxCell>
        <mxCell id="29aiM7jhphycKeGwUz8S-56" style="edgeStyle=orthogonalEdgeStyle;rounded=0;orthogonalLoop=1;jettySize=auto;html=1;exitX=1;exitY=0.5;exitDx=0;exitDy=0;entryX=0.25;entryY=1;entryDx=0;entryDy=0;fontSize=10;" parent="1" source="29aiM7jhphycKeGwUz8S-54" target="29aiM7jhphycKeGwUz8S-3" edge="1">
          <mxGeometry relative="1" as="geometry">
            <Array as="points">
              <mxPoint x="-861" y="420" />
              <mxPoint x="-861" y="340" />
              <mxPoint x="-511" y="340" />
            </Array>
          </mxGeometry>
        </mxCell>
        <mxCell id="29aiM7jhphycKeGwUz8S-54" value="RESET" style="text;html=1;strokeColor=none;fillColor=none;align=right;verticalAlign=middle;whiteSpace=wrap;rounded=0;fontSize=10;" parent="1" vertex="1">
          <mxGeometry x="-951" y="410" width="40" height="20" as="geometry" />
        </mxCell>
        <mxCell id="29aiM7jhphycKeGwUz8S-61" style="edgeStyle=orthogonalEdgeStyle;rounded=0;orthogonalLoop=1;jettySize=auto;html=1;exitX=1;exitY=0.5;exitDx=0;exitDy=0;entryX=0.75;entryY=1;entryDx=0;entryDy=0;fontSize=10;" parent="1" edge="1">
          <mxGeometry relative="1" as="geometry">
            <Array as="points">
              <mxPoint x="-851" y="441" />
              <mxPoint x="-851" y="351" />
              <mxPoint x="-471" y="351" />
            </Array>
            <mxPoint x="-911" y="441" as="sourcePoint" />
            <mxPoint x="-471" y="321" as="targetPoint" />
          </mxGeometry>
        </mxCell>
        <mxCell id="29aiM7jhphycKeGwUz8S-57" value="CLK" style="text;html=1;strokeColor=none;fillColor=none;align=right;verticalAlign=middle;whiteSpace=wrap;rounded=0;fontSize=10;" parent="1" vertex="1">
          <mxGeometry x="-951" y="430" width="40" height="20" as="geometry" />
        </mxCell>
        <mxCell id="29aiM7jhphycKeGwUz8S-64" value="" style="triangle;whiteSpace=wrap;html=1;strokeColor=#000000;fillColor=#ffffff;fontSize=10;align=right;" parent="1" vertex="1">
          <mxGeometry x="-780" y="510" width="6" height="8" as="geometry" />
        </mxCell>
        <mxCell id="29aiM7jhphycKeGwUz8S-65" value="" style="triangle;whiteSpace=wrap;html=1;strokeColor=#000000;fillColor=#ffffff;fontSize=10;align=right;rotation=-90;" parent="1" vertex="1">
          <mxGeometry x="-474" y="313" width="6" height="8" as="geometry" />
        </mxCell>
        <mxCell id="29aiM7jhphycKeGwUz8S-66" value="REGOUT1 [7:0]" style="text;html=1;strokeColor=none;fillColor=none;align=center;verticalAlign=middle;whiteSpace=wrap;rounded=0;fontSize=10;" parent="1" vertex="1">
          <mxGeometry x="-451" y="260" width="80" height="20" as="geometry" />
        </mxCell>
        <mxCell id="29aiM7jhphycKeGwUz8S-67" value="ALUOP [2:0]" style="text;html=1;align=center;verticalAlign=middle;resizable=0;points=[];autosize=1;fontSize=10;" parent="1" vertex="1">
          <mxGeometry x="-267" y="330" width="70" height="20" as="geometry" />
        </mxCell>
        <mxCell id="29aiM7jhphycKeGwUz8S-68" value="ALURESULT [7:0]" style="text;html=1;align=center;verticalAlign=middle;resizable=0;points=[];autosize=1;fontSize=10;rotation=90;" parent="1" vertex="1">
          <mxGeometry x="-171" y="293" width="100" height="20" as="geometry" />
        </mxCell>
        <mxCell id="29aiM7jhphycKeGwUz8S-74" value="CPU" style="text;html=1;align=center;verticalAlign=middle;resizable=0;points=[];autosize=1;fontSize=12;" parent="1" vertex="1">
          <mxGeometry x="-81" y="60" width="40" height="20" as="geometry" />
        </mxCell>
        <mxCell id="JZCBgXoklfMijY1Y_zp0-1" value="&amp;nbsp; &amp;nbsp; &amp;nbsp; &amp;nbsp;ADD" style="shape=stencil(vZXdjoMgEIWfhtsGYY3XG3f3PailKykFA/Tv7TuKNmJL2zRiYgwwx+8wZAYRLW3NGo4IrhH9QYRkGMMb5qfJnNmGV84vHpkRbC25j1hn9I6fxMb1DKFqboRro/QX4W/QtM9tQMtKKwU0oZUNJBPhSA4mTChg4rM36bd1CWYN+O6546bfvF9F5O9jl1W+iE+2TDahy5Bb6myS+YT5ZAvVQCqfbDYXWoIg1mMj1ZpVu3+jD2rzkhaRjkRbbfhr2E0tpPQXx/uH1rD2hrnTPVQP3+z1kUcb4NlhPqVKoUbUIsSSPA23mIs7aZvhhp+ZmxczYafcNNv9oh9jK6ltvIwjxQziSD3fSd/tkw4aaUMYdGH/u+8iVw==);whiteSpace=wrap;html=1;strokeColor=#000000;fillColor=#ffffff;fontSize=10;align=left;" parent="1" vertex="1">
          <mxGeometry x="-597" y="488" width="80" height="70" as="geometry" />
        </mxCell>
        <mxCell id="JZCBgXoklfMijY1Y_zp0-2" value="" style="endArrow=classic;html=1;rounded=0;exitX=1;exitY=0.5;exitDx=0;exitDy=0;entryX=-0.015;entryY=0.237;entryDx=0;entryDy=0;entryPerimeter=0;" parent="1" source="29aiM7jhphycKeGwUz8S-6" target="JZCBgXoklfMijY1Y_zp0-1" edge="1">
          <mxGeometry width="50" height="50" relative="1" as="geometry">
            <mxPoint x="-611" y="400" as="sourcePoint" />
            <mxPoint x="-561" y="350" as="targetPoint" />
          </mxGeometry>
        </mxCell>
        <mxCell id="JZCBgXoklfMijY1Y_zp0-6" value="4" style="text;html=1;align=center;verticalAlign=middle;whiteSpace=wrap;rounded=0;" parent="1" vertex="1">
          <mxGeometry x="-657" y="532" width="33" height="30" as="geometry" />
        </mxCell>
        <mxCell id="JZCBgXoklfMijY1Y_zp0-7" value="" style="endArrow=classic;html=1;rounded=0;entryX=0;entryY=0.836;entryDx=0;entryDy=0;entryPerimeter=0;exitX=1.029;exitY=0.494;exitDx=0;exitDy=0;exitPerimeter=0;" parent="1" source="JZCBgXoklfMijY1Y_zp0-6" target="JZCBgXoklfMijY1Y_zp0-1" edge="1">
          <mxGeometry width="50" height="50" relative="1" as="geometry">
            <mxPoint x="-671" y="460" as="sourcePoint" />
            <mxPoint x="-621" y="410" as="targetPoint" />
          </mxGeometry>
        </mxCell>
        <mxCell id="JZCBgXoklfMijY1Y_zp0-11" value="" style="shape=or;whiteSpace=wrap;html=1;direction=east;" parent="1" vertex="1">
          <mxGeometry x="-416" y="420" width="30" height="40" as="geometry" />
        </mxCell>
        <mxCell id="JZCBgXoklfMijY1Y_zp0-12" value="" style="endArrow=classic;html=1;rounded=0;exitX=0.088;exitY=1.004;exitDx=0;exitDy=0;entryX=0;entryY=0.75;entryDx=0;entryDy=0;entryPerimeter=0;exitPerimeter=0;" parent="1" source="29aiM7jhphycKeGwUz8S-2" target="JZCBgXoklfMijY1Y_zp0-11" edge="1">
          <mxGeometry width="50" height="50" relative="1" as="geometry">
            <mxPoint x="-511" y="380" as="sourcePoint" />
            <mxPoint x="-461" y="330" as="targetPoint" />
            <Array as="points">
              <mxPoint x="-744" y="441" />
            </Array>
          </mxGeometry>
        </mxCell>
        <mxCell id="JZCBgXoklfMijY1Y_zp0-17" value="BRANCH" style="edgeLabel;html=1;align=center;verticalAlign=middle;resizable=0;points=[];" parent="JZCBgXoklfMijY1Y_zp0-12" vertex="1" connectable="0">
          <mxGeometry x="0.6461" y="-1" relative="1" as="geometry">
            <mxPoint as="offset" />
          </mxGeometry>
        </mxCell>
        <mxCell id="JZCBgXoklfMijY1Y_zp0-13" value="" style="endArrow=classic;html=1;rounded=0;entryX=0;entryY=0.25;entryDx=0;entryDy=0;entryPerimeter=0;exitX=0.716;exitY=0.381;exitDx=0;exitDy=0;exitPerimeter=0;" parent="1" source="29aiM7jhphycKeGwUz8S-42" target="JZCBgXoklfMijY1Y_zp0-11" edge="1">
          <mxGeometry width="50" height="50" relative="1" as="geometry">
            <mxPoint x="-171" y="220" as="sourcePoint" />
            <mxPoint x="-431" y="340" as="targetPoint" />
            <Array as="points">
              <mxPoint x="-111" y="220" />
              <mxPoint x="-111" y="400" />
              <mxPoint x="-461" y="400" />
              <mxPoint x="-461" y="429" />
            </Array>
          </mxGeometry>
        </mxCell>
        <mxCell id="JZCBgXoklfMijY1Y_zp0-14" value="ZERO" style="edgeLabel;html=1;align=center;verticalAlign=middle;resizable=0;points=[];" parent="JZCBgXoklfMijY1Y_zp0-13" vertex="1" connectable="0">
          <mxGeometry x="-0.9246" relative="1" as="geometry">
            <mxPoint as="offset" />
          </mxGeometry>
        </mxCell>
        <mxCell id="JZCBgXoklfMijY1Y_zp0-18" value="" style="shape=xor;whiteSpace=wrap;html=1;direction=south;" parent="1" vertex="1">
          <mxGeometry x="-264" y="584" width="40" height="40" as="geometry" />
        </mxCell>
        <mxCell id="JZCBgXoklfMijY1Y_zp0-19" value="" style="endArrow=classic;html=1;rounded=0;exitX=1;exitY=0.5;exitDx=0;exitDy=0;exitPerimeter=0;entryX=0.25;entryY=0.5;entryDx=0;entryDy=0;entryPerimeter=0;" parent="1" source="JZCBgXoklfMijY1Y_zp0-11" target="JZCBgXoklfMijY1Y_zp0-18" edge="1">
          <mxGeometry width="50" height="50" relative="1" as="geometry">
            <mxPoint x="-389" y="451.5" as="sourcePoint" />
            <mxPoint x="-237" y="603.5000000000002" as="targetPoint" />
            <Array as="points">
              <mxPoint x="-249" y="449" />
            </Array>
          </mxGeometry>
        </mxCell>
        <mxCell id="JZCBgXoklfMijY1Y_zp0-20" value="" style="endArrow=classic;html=1;rounded=0;exitX=0.043;exitY=1;exitDx=0;exitDy=0;exitPerimeter=0;entryX=0.175;entryY=0.75;entryDx=0;entryDy=0;entryPerimeter=0;" parent="1" source="29aiM7jhphycKeGwUz8S-2" target="JZCBgXoklfMijY1Y_zp0-18" edge="1">
          <mxGeometry width="50" height="50" relative="1" as="geometry">
            <mxPoint x="-301" y="400" as="sourcePoint" />
            <mxPoint x="-251" y="350" as="targetPoint" />
            <Array as="points">
              <mxPoint x="-748" y="462" />
              <mxPoint x="-355" y="468" />
              <mxPoint x="-280" y="466" />
            </Array>
          </mxGeometry>
        </mxCell>
        <mxCell id="JZCBgXoklfMijY1Y_zp0-21" value="JUMP" style="edgeLabel;html=1;align=center;verticalAlign=middle;resizable=0;points=[];" parent="JZCBgXoklfMijY1Y_zp0-20" vertex="1" connectable="0">
          <mxGeometry x="0.5211" y="2" relative="1" as="geometry">
            <mxPoint x="-136" y="5" as="offset" />
          </mxGeometry>
        </mxCell>
        <mxCell id="JZCBgXoklfMijY1Y_zp0-22" value="&amp;nbsp; &amp;nbsp; &amp;nbsp; &amp;nbsp;ADD" style="shape=stencil(vZXdjoMgEIWfhtsGYY3XG3f3PailKykFA/Tv7TuKNmJL2zRiYgwwx+8wZAYRLW3NGo4IrhH9QYRkGMMb5qfJnNmGV84vHpkRbC25j1hn9I6fxMb1DKFqboRro/QX4W/QtM9tQMtKKwU0oZUNJBPhSA4mTChg4rM36bd1CWYN+O6546bfvF9F5O9jl1W+iE+2TDahy5Bb6myS+YT5ZAvVQCqfbDYXWoIg1mMj1ZpVu3+jD2rzkhaRjkRbbfhr2E0tpPQXx/uH1rD2hrnTPVQP3+z1kUcb4NlhPqVKoUbUIsSSPA23mIs7aZvhhp+ZmxczYafcNNv9oh9jK6ltvIwjxQziSD3fSd/tkw4aaUMYdGH/u+8iVw==);whiteSpace=wrap;html=1;strokeColor=#000000;fillColor=#ffffff;fontSize=10;align=left;direction=east;" parent="1" vertex="1">
          <mxGeometry x="-436" y="573" width="80" height="70" as="geometry" />
        </mxCell>
        <mxCell id="JZCBgXoklfMijY1Y_zp0-23" value="" style="endArrow=classic;html=1;rounded=0;entryX=-0.033;entryY=0.15;entryDx=0;entryDy=0;entryPerimeter=0;" parent="1" target="JZCBgXoklfMijY1Y_zp0-22" edge="1">
          <mxGeometry width="50" height="50" relative="1" as="geometry">
            <mxPoint x="-961" y="110" as="sourcePoint" />
            <mxPoint x="-351" y="350" as="targetPoint" />
            <Array as="points">
              <mxPoint x="-961" y="80" />
              <mxPoint x="-62" y="80" />
              <mxPoint x="-62" y="291" />
              <mxPoint x="-62" y="498" />
              <mxPoint x="-471" y="500" />
              <mxPoint x="-471" y="520" />
              <mxPoint x="-471" y="584" />
            </Array>
          </mxGeometry>
        </mxCell>
        <mxCell id="JZCBgXoklfMijY1Y_zp0-26" value="IMMEDIATE[23:16]" style="edgeLabel;html=1;align=center;verticalAlign=middle;resizable=0;points=[];" parent="JZCBgXoklfMijY1Y_zp0-23" vertex="1" connectable="0">
          <mxGeometry x="-0.6288" y="1" relative="1" as="geometry">
            <mxPoint as="offset" />
          </mxGeometry>
        </mxCell>
        <mxCell id="JZCBgXoklfMijY1Y_zp0-24" value="" style="endArrow=classic;html=1;rounded=0;exitX=0.693;exitY=0.522;exitDx=0;exitDy=0;exitPerimeter=0;entryX=-0.005;entryY=0.825;entryDx=0;entryDy=0;entryPerimeter=0;" parent="1" source="JZCBgXoklfMijY1Y_zp0-1" target="JZCBgXoklfMijY1Y_zp0-22" edge="1">
          <mxGeometry width="50" height="50" relative="1" as="geometry">
            <mxPoint x="-421" y="380" as="sourcePoint" />
            <mxPoint x="-371" y="330" as="targetPoint" />
            <Array as="points">
              <mxPoint x="-511" y="525" />
              <mxPoint x="-511" y="567" />
              <mxPoint x="-511" y="631" />
            </Array>
          </mxGeometry>
        </mxCell>
        <mxCell id="JZCBgXoklfMijY1Y_zp0-27" value="MUX" style="shape=trapezoid;perimeter=trapezoidPerimeter;whiteSpace=wrap;html=1;fixedSize=1;direction=west;" parent="1" vertex="1">
          <mxGeometry x="-404" y="724" width="95" height="31" as="geometry" />
        </mxCell>
        <mxCell id="JZCBgXoklfMijY1Y_zp0-28" value="" style="endArrow=classic;html=1;rounded=0;exitX=0.69;exitY=0.488;exitDx=0;exitDy=0;exitPerimeter=0;entryX=0.243;entryY=1.045;entryDx=0;entryDy=0;entryPerimeter=0;" parent="1" source="JZCBgXoklfMijY1Y_zp0-22" target="JZCBgXoklfMijY1Y_zp0-27" edge="1">
          <mxGeometry width="50" height="50" relative="1" as="geometry">
            <mxPoint x="-471" y="480" as="sourcePoint" />
            <mxPoint x="-421" y="430" as="targetPoint" />
            <Array as="points">
              <mxPoint x="-332" y="607" />
            </Array>
          </mxGeometry>
        </mxCell>
        <mxCell id="JZCBgXoklfMijY1Y_zp0-30" value="SIGN EXDENDER" style="ellipse;whiteSpace=wrap;html=1;" parent="1" vertex="1">
          <mxGeometry x="-155" y="480.25" width="80" height="45.5" as="geometry" />
        </mxCell>
        <mxCell id="JZCBgXoklfMijY1Y_zp0-31" value="SHIFT LEFT 2" style="ellipse;whiteSpace=wrap;html=1;" parent="1" vertex="1">
          <mxGeometry x="-436" y="485" width="80" height="40" as="geometry" />
        </mxCell>
        <mxCell id="JZCBgXoklfMijY1Y_zp0-32" value="" style="endArrow=classic;html=1;rounded=0;entryX=0.75;entryY=1;entryDx=0;entryDy=0;" parent="1" edge="1">
          <mxGeometry width="50" height="50" relative="1" as="geometry">
            <mxPoint x="-512" y="560" as="sourcePoint" />
            <mxPoint x="-381.24999999999955" y="724" as="targetPoint" />
            <Array as="points">
              <mxPoint x="-512" y="600" />
              <mxPoint x="-510" y="681" />
              <mxPoint x="-381" y="681" />
            </Array>
          </mxGeometry>
        </mxCell>
        <mxCell id="JZCBgXoklfMijY1Y_zp0-33" value="" style="endArrow=classic;html=1;rounded=0;exitX=1;exitY=0.5;exitDx=0;exitDy=0;exitPerimeter=0;entryX=0;entryY=0.5;entryDx=0;entryDy=0;" parent="1" source="JZCBgXoklfMijY1Y_zp0-18" target="JZCBgXoklfMijY1Y_zp0-27" edge="1">
          <mxGeometry width="50" height="50" relative="1" as="geometry">
            <mxPoint x="-331" y="640" as="sourcePoint" />
            <mxPoint x="-281" y="590" as="targetPoint" />
            <Array as="points">
              <mxPoint x="-231" y="740" />
            </Array>
          </mxGeometry>
        </mxCell>
        <mxCell id="JZCBgXoklfMijY1Y_zp0-35" value="" style="endArrow=classic;html=1;rounded=0;entryX=0.25;entryY=1;entryDx=0;entryDy=0;exitX=0.516;exitY=-0.032;exitDx=0;exitDy=0;exitPerimeter=0;" parent="1" source="JZCBgXoklfMijY1Y_zp0-27" target="29aiM7jhphycKeGwUz8S-6" edge="1">
          <mxGeometry width="50" height="50" relative="1" as="geometry">
            <mxPoint x="-307" y="755" as="sourcePoint" />
            <mxPoint x="-391" y="620" as="targetPoint" />
            <Array as="points">
              <mxPoint x="-307" y="800" />
              <mxPoint x="-418" y="802" />
              <mxPoint x="-418" y="690" />
              <mxPoint x="-734" y="690" />
              <mxPoint x="-760" y="690" />
            </Array>
          </mxGeometry>
        </mxCell>
        <mxCell id="JZCBgXoklfMijY1Y_zp0-37" value="NEXT_PC" style="edgeLabel;html=1;align=center;verticalAlign=middle;resizable=0;points=[];" parent="JZCBgXoklfMijY1Y_zp0-35" vertex="1" connectable="0">
          <mxGeometry x="0.849" relative="1" as="geometry">
            <mxPoint as="offset" />
          </mxGeometry>
        </mxCell>
        <mxCell id="JZCBgXoklfMijY1Y_zp0-36" value="" style="endArrow=classic;html=1;rounded=0;exitX=1;exitY=0.5;exitDx=0;exitDy=0;entryX=1;entryY=0.5;entryDx=0;entryDy=0;" parent="1" source="29aiM7jhphycKeGwUz8S-6" target="29aiM7jhphycKeGwUz8S-4" edge="1">
          <mxGeometry width="50" height="50" relative="1" as="geometry">
            <mxPoint x="-311" y="710" as="sourcePoint" />
            <mxPoint x="-261" y="660" as="targetPoint" />
            <Array as="points">
              <mxPoint x="-671" y="504" />
              <mxPoint x="-671" y="660" />
              <mxPoint x="-551" y="660" />
              <mxPoint x="-551" y="803" />
            </Array>
          </mxGeometry>
        </mxCell>
        <mxCell id="JZCBgXoklfMijY1Y_zp0-38" value="" style="endArrow=classic;html=1;rounded=0;exitX=1;exitY=0.5;exitDx=0;exitDy=0;entryX=0;entryY=0.75;entryDx=0;entryDy=0;" parent="1" source="29aiM7jhphycKeGwUz8S-57" target="29aiM7jhphycKeGwUz8S-6" edge="1">
          <mxGeometry width="50" height="50" relative="1" as="geometry">
            <mxPoint x="-471" y="490" as="sourcePoint" />
            <mxPoint x="-421" y="440" as="targetPoint" />
            <Array as="points">
              <mxPoint x="-851" y="440" />
              <mxPoint x="-851" y="514" />
            </Array>
          </mxGeometry>
        </mxCell>
        <mxCell id="JZCBgXoklfMijY1Y_zp0-39" value="" style="endArrow=classic;html=1;rounded=0;exitX=1;exitY=0.5;exitDx=0;exitDy=0;entryX=0;entryY=0.25;entryDx=0;entryDy=0;" parent="1" source="29aiM7jhphycKeGwUz8S-54" target="29aiM7jhphycKeGwUz8S-6" edge="1">
          <mxGeometry width="50" height="50" relative="1" as="geometry">
            <mxPoint x="-471" y="490" as="sourcePoint" />
            <mxPoint x="-421" y="440" as="targetPoint" />
            <Array as="points">
              <mxPoint x="-831" y="420" />
              <mxPoint x="-831" y="494" />
            </Array>
          </mxGeometry>
        </mxCell>
        <mxCell id="mmFTcx6kcvjpYH2LnyYt-2" value="" style="shape=or;whiteSpace=wrap;html=1;direction=south;" parent="1" vertex="1">
          <mxGeometry x="-231" y="439" width="44" height="44" as="geometry" />
        </mxCell>
        <mxCell id="mmFTcx6kcvjpYH2LnyYt-3" value="" style="endArrow=classic;html=1;rounded=0;exitX=0.25;exitY=1;exitDx=0;exitDy=0;entryX=0;entryY=0.75;entryDx=0;entryDy=0;entryPerimeter=0;" parent="1" source="29aiM7jhphycKeGwUz8S-2" target="mmFTcx6kcvjpYH2LnyYt-2" edge="1">
          <mxGeometry width="50" height="50" relative="1" as="geometry">
            <mxPoint x="-270" y="463" as="sourcePoint" />
            <mxPoint x="-220" y="413" as="targetPoint" />
            <Array as="points">
              <mxPoint x="-733" y="405" />
              <mxPoint x="-220" y="409" />
            </Array>
          </mxGeometry>
        </mxCell>
        <mxCell id="mmFTcx6kcvjpYH2LnyYt-6" value="NOTBRANCH" style="edgeLabel;html=1;align=center;verticalAlign=middle;resizable=0;points=[];" parent="mmFTcx6kcvjpYH2LnyYt-3" vertex="1" connectable="0">
          <mxGeometry x="0.7097" y="-1" relative="1" as="geometry">
            <mxPoint as="offset" />
          </mxGeometry>
        </mxCell>
        <mxCell id="mmFTcx6kcvjpYH2LnyYt-4" value="" style="ellipse;whiteSpace=wrap;html=1;aspect=fixed;" parent="1" vertex="1">
          <mxGeometry x="-204" y="428.5" width="10.5" height="10.5" as="geometry" />
        </mxCell>
        <mxCell id="mmFTcx6kcvjpYH2LnyYt-5" value="" style="endArrow=classic;html=1;rounded=0;entryX=0.5;entryY=0;entryDx=0;entryDy=0;" parent="1" target="mmFTcx6kcvjpYH2LnyYt-4" edge="1">
          <mxGeometry width="50" height="50" relative="1" as="geometry">
            <mxPoint x="-112" y="400" as="sourcePoint" />
            <mxPoint x="-191" y="414" as="targetPoint" />
            <Array as="points">
              <mxPoint x="-199" y="400" />
            </Array>
          </mxGeometry>
        </mxCell>
      </root>
    </mxGraphModel>
  </diagram>
</mxfile>
